<?xml version="1.0" encoding="UTF-8" standalone="no"?>
<!-- Created with Inkscape (http://www.inkscape.org/) -->

<svg
   xmlns:dc="http://purl.org/dc/elements/1.1/"
   xmlns:cc="http://creativecommons.org/ns#"
   xmlns:rdf="http://www.w3.org/1999/02/22-rdf-syntax-ns#"
   xmlns:svg="http://www.w3.org/2000/svg"
   xmlns="http://www.w3.org/2000/svg"
   xmlns:sodipodi="http://sodipodi.sourceforge.net/DTD/sodipodi-0.dtd"
   xmlns:inkscape="http://www.inkscape.org/namespaces/inkscape"
   width="200"
   height="200"
   viewBox="0 0 199.99999 199.99999"
   id="svg2"
   version="1.1"
   inkscape:version="0.91 r13725"
   sodipodi:docname="logo.svg">
  <defs
     id="defs4" />
  <sodipodi:namedview
     id="base"
     pagecolor="#ffffff"
     bordercolor="#666666"
     borderopacity="1.0"
     inkscape:pageopacity="0.0"
     inkscape:pageshadow="2"
     inkscape:zoom="1.979899"
     inkscape:cx="142.15988"
     inkscape:cy="80.300568"
     inkscape:document-units="px"
     inkscape:current-layer="layer1"
     showgrid="false"
     inkscape:window-width="1600"
     inkscape:window-height="873"
     inkscape:window-x="0"
     inkscape:window-y="27"
     inkscape:window-maximized="1"
     units="px" />
  <metadata
     id="metadata7">
    <rdf:RDF>
      <cc:Work
         rdf:about="">
        <dc:format>image/svg+xml</dc:format>
        <dc:type
           rdf:resource="http://purl.org/dc/dcmitype/StillImage" />
        <dc:title />
      </cc:Work>
    </rdf:RDF>
  </metadata>
  <g
     inkscape:label="Capa 1"
     inkscape:groupmode="layer"
     id="layer1"
     transform="translate(0,-852.36225)">
    <path
       inkscape:connector-curvature="0"
       id="path4198"
       d="m 160.57144,620.21939 0,-128 128,0 128,0 0,128 0,128 -128,0 -128,0 0,-128 z"
       style="fill:#fefefd" />
    <g
       id="g4387"
       transform="matrix(1.1471482,0,0,1.1471482,-14.714818,-128.66693)">
      <g
         transform="translate(-0.42225431,-4.4999721)"
         id="g3436">
        <path
           style="fill:#3a393f"
           inkscape:connector-curvature="0"
           id="path77"
           d="m 53.584171,874.91182 0.0023,56.42525 c 0,7.94949 20.96165,14.39413 46.827659,14.39413 25.866,0 46.84047,-6.44464 46.84047,-14.39413 l 0,-56.42525 -93.670391,0 z" />
        <path
           style="fill:#84868d"
           inkscape:connector-curvature="0"
           id="path79"
           d="m 147.33599,875.00908 c 0,6.17623 -20.96166,13.5746 -46.82766,13.5746 -25.866759,0 -46.827655,-7.39761 -46.827655,-13.5746 0,-6.18227 20.960896,-8.80898 46.827655,-8.80898 25.86675,0 46.82766,2.62671 46.82766,8.80898 z" />
        <g
           transform="matrix(0.75393511,0,0,0.75393511,-23.516241,866.2001)"
           id="g83">
          <path
             style="fill:#3a393f"
             inkscape:connector-curvature="0"
             id="path85"
             d="m 234.88,82.484 0,3.911 c 0,21.673 -44.299,27.468 -70.501,27.468 -26.185,0 -70.502,-5.795 -70.502,-27.468 l 0,-3.911 c 0,0 -28.371,0 -28.371,14.74 0,16.831 44.263,37.117 98.873,37.117 54.87021,-0.0976 99.19826,-18.91322 98.891,-37.117 0,-14.74 -28.39,-14.74 -28.39,-14.74 z"
             sodipodi:nodetypes="cssscsccc" />
        </g>
      </g>
      <g
         transform="translate(0,-19.999999)"
         id="g4330">
        <path
           style="clip-rule:evenodd;fill:#db404e;fill-rule:evenodd"
           inkscape:connector-curvature="0"
           id="path26-3"
           d="m 96.506456,1003.7449 c -0.38817,-0.7764 -1.16451,-1.5527 -1.940851,-1.9409 -7.763404,-6.2107 -17.46766,-1.5527 -22.125703,5.8226 -2.329021,3.8817 -3.881702,8.5397 -5.822553,12.8096 -3.493532,8.5397 -7.375235,10.0924 -15.138639,5.4344 -1.552681,-1.1645 -3.493532,-2.329 -6.210724,-3.8817 1.552681,11.2569 6.987064,17.4676 16.30315,19.7967 14.362298,3.8817 26.007405,-1.5527 34.93532,-13.586 4.269874,-5.0462 3.881704,-18.244 0,-24.4547 z"
           class="st1" />
        <path
           style="clip-rule:evenodd;fill:#db404e;fill-rule:evenodd"
           inkscape:connector-curvature="0"
           id="path28"
           d="m 103.49352,1003.7449 c 0.38817,-0.7764 1.16451,-1.5527 1.94085,-1.9409 7.76341,-6.2107 17.46766,-1.5527 22.1257,5.8226 2.32903,3.8817 3.88171,8.5397 5.82256,12.8096 3.49353,8.5397 7.37523,10.0924 15.13864,5.4344 1.55268,-1.1645 3.49353,-2.329 6.21072,-3.8817 -1.55268,11.2569 -6.98706,17.4676 -16.30315,19.7967 -14.3623,3.8817 -26.0074,-1.5527 -34.93532,-13.586 -4.269872,-5.0462 -3.881702,-18.244 0,-24.4547 z"
           class="st1" />
      </g>
    </g>
  </g>
</svg>
