<?xml version="1.0" encoding="UTF-8" standalone="no"?>
<!-- Created with Inkscape (http://www.inkscape.org/) -->

<svg
   xmlns:dc="http://purl.org/dc/elements/1.1/"
   xmlns:cc="http://creativecommons.org/ns#"
   xmlns:rdf="http://www.w3.org/1999/02/22-rdf-syntax-ns#"
   xmlns:svg="http://www.w3.org/2000/svg"
   xmlns="http://www.w3.org/2000/svg"
   xmlns:sodipodi="http://sodipodi.sourceforge.net/DTD/sodipodi-0.dtd"
   xmlns:inkscape="http://www.inkscape.org/namespaces/inkscape"
   width="885"
   height="300"
   viewBox="0 0 884.99996 299.99998"
   id="svg2"
   version="1.1"
   inkscape:version="0.91 r13725"
   sodipodi:docname="title.svg">
  <defs
     id="defs4" />
  <sodipodi:namedview
     id="base"
     pagecolor="#ffffff"
     bordercolor="#666666"
     borderopacity="1.0"
     inkscape:pageopacity="0.0"
     inkscape:pageshadow="2"
     inkscape:zoom="0.98994949"
     inkscape:cx="307.81682"
     inkscape:cy="174.63164"
     inkscape:document-units="px"
     inkscape:current-layer="layer1"
     showgrid="false"
     inkscape:window-width="1600"
     inkscape:window-height="873"
     inkscape:window-x="0"
     inkscape:window-y="27"
     inkscape:window-maximized="1"
     units="px" />
  <metadata
     id="metadata7">
    <rdf:RDF>
      <cc:Work
         rdf:about="">
        <dc:format>image/svg+xml</dc:format>
        <dc:type
           rdf:resource="http://purl.org/dc/dcmitype/StillImage" />
        <dc:title />
      </cc:Work>
    </rdf:RDF>
  </metadata>
  <g
     inkscape:label="Capa 1"
     inkscape:groupmode="layer"
     id="layer1"
     transform="translate(0,-752.36226)">
    <path
       inkscape:connector-curvature="0"
       id="path4198"
       d="m 160.57144,620.21939 0,-128 128,0 128,0 0,128 0,128 -128,0 -128,0 0,-128 z"
       style="fill:#fefefd" />
    <g
       style="font-style:normal;font-weight:normal;font-size:40px;line-height:125%;font-family:sans-serif;letter-spacing:0px;word-spacing:0px;fill:#000000;fill-opacity:1;stroke:none;stroke-width:1px;stroke-linecap:butt;stroke-linejoin:miter;stroke-opacity:1"
       id="text4146">
      <g
         style="font-style:normal;font-weight:normal;font-size:40px;line-height:125%;font-family:sans-serif;letter-spacing:0px;word-spacing:0px;fill:#000000;fill-opacity:1;stroke:none;stroke-width:1px;stroke-linecap:butt;stroke-linejoin:miter;stroke-opacity:1"
         id="text4154" />
    </g>
    <g
       transform="matrix(1.8220017,0,0,1.8220017,-363.7357,-930.49651)"
       id="g4358">
      <g
         id="text4210"
         style="font-style:normal;font-weight:normal;font-size:40px;line-height:125%;font-family:sans-serif;letter-spacing:0px;word-spacing:0px;fill:#95a5a6;fill-opacity:1;stroke:none;stroke-width:1px;stroke-linecap:butt;stroke-linejoin:miter;stroke-opacity:1">
        <path
           inkscape:connector-curvature="0"
           id="path4346-3"
           style="font-style:normal;font-variant:normal;font-weight:normal;font-stretch:normal;font-size:79.99999237px;line-height:125%;font-family:'Contrail One';-inkscape-font-specification:'Contrail One, Normal';text-align:start;letter-spacing:-3.49999952px;writing-mode:lr-tb;text-anchor:start;fill:#95a5a6;fill-opacity:1"
           d="m 260.62262,977.61902 q 0.0781,-0.46875 0.27344,-0.66406 0.19531,-0.19531 3.94531,-0.54687 3.75,-0.35157 10.27343,-0.35157 6.5625,0 10.07813,3.78907 3.51562,3.75 3.51562,10.3125 0,12.38281 -2.77343,28.51561 -1.48438,8.5547 -4.80469,12.7344 -3.04688,3.8281 -9.53125,5.039 -2.92969,0.5079 -7.14844,0.6641 l -9.72656,0.3516 q -0.85937,-0.039 -0.85937,-0.7422 l 6.75781,-59.10158 z m 8.94531,7.53907 -4.76562,42.53901 q 5.82031,-0.5078 8.04687,-2.2656 2.26562,-1.7578 3.16406,-6.6797 0.89844,-4.9218 1.75781,-13.4375 0.89844,-8.51559 0.89844,-13.94528 0,-3.20312 -1.5625,-4.76562 -1.5625,-1.5625 -4.25781,-1.5625 -2.65625,0 -3.28125,0.11719 z" />
        <path
           inkscape:connector-curvature="0"
           id="path4348-6"
           style="font-style:normal;font-variant:normal;font-weight:normal;font-stretch:normal;font-size:79.99999237px;line-height:125%;font-family:'Contrail One';-inkscape-font-specification:'Contrail One, Normal';text-align:start;letter-spacing:-3.49999952px;writing-mode:lr-tb;text-anchor:start;fill:#95a5a6;fill-opacity:1"
           d="m 305.95074,1037.7362 q -6.91406,0 -10.15625,-4.1406 -3.20312,-4.1797 -3.20312,-12.1485 0,-3.7109 0.82031,-9.6875 0.82031,-5.9765 1.52344,-8.6718 0.70312,-2.7344 1.99218,-5.31253 1.28906,-2.61718 3.04688,-4.29687 3.86718,-3.75 10.46875,-3.75 9.375,0 12.14843,6.875 1.48438,3.6719 1.48438,8.9062 0,5.1954 -0.82032,10.7813 -0.78125,5.5859 -1.48437,8.2812 -0.70312,2.6563 -1.99219,5.2344 -1.25,2.5391 -3.00781,4.2188 -3.86719,3.7109 -10.82031,3.7109 z m 6.91406,-17.1094 q 0.42969,-2.0703 1.09375,-7.7343 0.70313,-5.7032 0.70313,-8.4375 0,-6.64067 -4.80469,-6.64067 -2.26563,0 -3.75,2.14844 -1.44531,2.14843 -2.34375,7.14843 -1.79688,10.1563 -1.79688,16.4844 0,6.3281 4.76563,6.3281 2.26562,0 3.75,-2.1484 1.52344,-2.1875 2.38281,-7.1485 z" />
        <path
           inkscape:connector-curvature="0"
           id="path4350-7"
           style="font-style:normal;font-variant:normal;font-weight:normal;font-stretch:normal;font-size:79.99999237px;line-height:125%;font-family:'Contrail One';-inkscape-font-specification:'Contrail One, Normal';text-align:start;letter-spacing:-3.49999952px;writing-mode:lr-tb;text-anchor:start;fill:#95a5a6;fill-opacity:1"
           d="m 356.12261,990.93934 q 0.85937,0.3125 0.85937,1.48437 l -0.89843,7.07031 q -0.0781,0.78128 -1.09375,0.78128 -0.97657,0 -1.875,-0.39065 -3.78907,-1.67969 -6.28907,-1.67969 -2.49999,0 -3.98437,2.07034 -1.48437,2.0703 -2.38281,5.9375 -1.67969,7.2265 -1.67969,13.2031 0,9.6094 4.96094,9.6094 3.59375,0 5.82031,-0.8985 2.22656,-0.9375 2.89062,-0.9375 1.36719,0 1.36719,1.1719 l -0.82031,6.875 q -0.0781,0.7031 -0.3125,0.8594 -0.19531,0.1172 -0.54688,0.2734 -4.72656,1.3672 -8.90624,1.3672 -4.14063,0 -6.5625,-1.0547 -2.38282,-1.0547 -3.78907,-2.6953 -1.40625,-1.6797 -2.26562,-4.0234 -1.52344,-4.0235 -1.52344,-9.8828 0,-5.8985 0.74219,-10.2344 0.78125,-4.375 1.60156,-7.1094 0.85938,-2.7344 2.26563,-5.23437 1.40625,-2.53906 3.28125,-4.17968 4.10156,-3.59375 10.85937,-3.59375 4.53125,0 8.28125,1.21094 z" />
        <path
           inkscape:connector-curvature="0"
           id="path4352-5"
           style="font-style:normal;font-variant:normal;font-weight:normal;font-stretch:normal;font-size:79.99999237px;line-height:125%;font-family:'Contrail One';-inkscape-font-specification:'Contrail One, Normal';text-align:start;letter-spacing:-3.49999952px;writing-mode:lr-tb;text-anchor:start;fill:#95a5a6;fill-opacity:1"
           d="m 365.47417,990.23621 q 0.89844,-8.59375 1.17188,-8.86719 0.27344,-0.3125 0.82031,-0.35156 l 7.46094,-0.27344 q 1.05469,0.0781 1.05469,0.97657 -0.74219,4.33593 -1.25,8.32031 l 9.10156,-0.3125 q 0.9375,0.0391 0.9375,1.01562 l -1.09375,6.21094 q -0.15625,0.9375 -0.97657,0.97656 l -8.94531,0.35156 q -2.65625,23.90622 -2.65625,26.36722 0,4.5703 3.90625,4.5703 1.99219,0 3.86719,-0.625 1.875,-0.625 2.34375,-0.625 0.82031,0 0.82031,1.0156 l -0.82031,6.8359 q -0.0781,0.586 -0.3125,0.8594 -0.19531,0.2735 -1.91406,0.6641 -1.67969,0.3906 -5.78125,0.3906 -6.01563,0 -8.90625,-2.7734 -2.89063,-2.8125 -2.89063,-8.3594 0,-5.5469 3.08594,-28.20313 l -3.82812,0.15625 q -0.97657,-0.0391 -0.97657,-0.97656 l 1.05469,-6.28906 q 0.11719,-0.89844 1.01563,-0.9375 l 3.71093,-0.11719 z" />
        <path
           inkscape:connector-curvature="0"
           id="path4354-3"
           style="font-style:normal;font-variant:normal;font-weight:normal;font-stretch:normal;font-size:79.99999237px;line-height:125%;font-family:'Contrail One';-inkscape-font-specification:'Contrail One, Normal';text-align:start;letter-spacing:-3.49999952px;writing-mode:lr-tb;text-anchor:start;fill:#95a5a6;fill-opacity:1"
           d="m 399.20073,1037.7362 q -6.91406,0 -10.15625,-4.1406 -3.20313,-4.1797 -3.20313,-12.1485 0,-3.7109 0.82032,-9.6875 0.82031,-5.9765 1.52343,-8.6718 0.70313,-2.7344 1.99219,-5.31253 1.28906,-2.61718 3.04688,-4.29687 3.86718,-3.75 10.46874,-3.75 9.375,0 12.14844,6.875 1.48438,3.6719 1.48438,8.9062 0,5.1954 -0.82032,10.7813 -0.78125,5.5859 -1.48437,8.2812 -0.70313,2.6563 -1.99219,5.2344 -1.25,2.5391 -3.00781,4.2188 -3.86719,3.7109 -10.82031,3.7109 z m 6.91406,-17.1094 q 0.42969,-2.0703 1.09375,-7.7343 0.70312,-5.7032 0.70312,-8.4375 0,-6.64067 -4.80468,-6.64067 -2.26563,0 -3.75,2.14844 -1.44531,2.14843 -2.34375,7.14843 -1.79688,10.1563 -1.79688,16.4844 0,6.3281 4.76563,6.3281 2.26562,0 3.75,-2.1484 1.52343,-2.1875 2.38281,-7.1485 z" />
        <path
           inkscape:connector-curvature="0"
           id="path4356-5"
           style="font-style:normal;font-variant:normal;font-weight:normal;font-stretch:normal;font-size:79.99999237px;line-height:125%;font-family:'Contrail One';-inkscape-font-specification:'Contrail One, Normal';text-align:start;letter-spacing:-3.49999952px;writing-mode:lr-tb;text-anchor:start;fill:#95a5a6;fill-opacity:1"
           d="m 447.65385,1000.0409 -4.17969,-0.42969 q -5.07812,0 -8.51562,2.03129 l -3.86719,34.4531 q -0.15625,0.9765 -0.97656,1.0547 l -7.89062,0.3125 q -0.85938,-0.078 -0.85938,-0.7422 l 5.15625,-45.4297 q 0.15625,-0.85938 0.97656,-0.9375 l 7.61719,-0.27344 q 1.05469,0.0391 1.05469,1.01563 l -0.46875,4.02343 q 2.5,-2.53906 4.84375,-3.94531 2.34375,-1.44531 4.6875,-1.44531 2.38281,0 3.63281,0.19531 0.82031,0.15625 0.82031,1.09375 0,2.69531 -0.89844,8.00781 -0.19531,1.01563 -1.13281,1.01563 z" />
      </g>
      <g
         id="text4214"
         style="font-style:normal;font-weight:normal;font-size:40px;line-height:125%;font-family:sans-serif;letter-spacing:-3.49999952px;word-spacing:0px;fill:#db404e;fill-opacity:1;stroke:none;stroke-width:1px;stroke-linecap:butt;stroke-linejoin:miter;stroke-opacity:1">
        <path
           inkscape:connector-curvature="0"
           id="path4333"
           style="font-style:normal;font-variant:normal;font-weight:normal;font-stretch:normal;font-size:79.99999237px;line-height:125%;font-family:'Contrail One';-inkscape-font-specification:'Contrail One, Normal';text-align:start;letter-spacing:-3.49999952px;writing-mode:lr-tb;text-anchor:start;fill:#db404e;fill-opacity:1"
           d="m 491.21322,977.34559 -6.67968,58.86721 q -0.15625,0.8984 -0.97657,0.9765 l -8.04687,0.2735 q -0.85938,0 -0.85938,-0.7422 l 2.89063,-25.6641 -9.92188,0.3516 -2.8125,24.8047 q -0.11718,0.9375 -1.01562,0.9765 l -8.04687,0.2735 q -0.85938,0 -0.85938,-0.7422 l 6.71875,-59.10158 q 0.15625,-0.82031 1.01563,-0.89843 l 7.85156,-0.3125 q 1.01562,0.0391 1.01562,0.9375 l -2.85156,24.88281 9.96094,-0.3516 2.73437,-24.25778 q 0.11719,-0.85937 1.05469,-0.89843 l 7.8125,-0.3125 q 1.01562,0.0391 1.01562,0.9375 z" />
        <path
           inkscape:connector-curvature="0"
           id="path4335"
           style="font-style:normal;font-variant:normal;font-weight:normal;font-stretch:normal;font-size:79.99999237px;line-height:125%;font-family:'Contrail One';-inkscape-font-specification:'Contrail One, Normal';text-align:start;letter-spacing:-3.49999952px;writing-mode:lr-tb;text-anchor:start;fill:#db404e;fill-opacity:1"
           d="m 527.43978,991.09559 -5.07812,45.03901 q -0.11719,1.0157 -1.01563,1.0547 l -7.89062,0.2735 q -0.82031,-0.078 -0.82031,-0.7422 l 0.74218,-5.3125 q -1.79687,3.0469 -3.94531,4.6875 -2.10937,1.6406 -4.76562,1.6406 -2.65625,0 -4.53125,-0.8984 -1.875,-0.9375 -3.08594,-2.4219 -1.17188,-1.5234 -1.91406,-3.6328 -1.36719,-3.75 -1.36719,-10.2344 0,-6.5234 0.85937,-11.0547 0.89844,-4.5312 1.5625,-6.875 0.66407,-2.3828 1.75782,-4.88279 1.13281,-2.5 2.53906,-4.17969 3.20312,-3.82812 8.08594,-3.82812 3.63281,0 5.54687,1.75781 1.91406,1.71875 3.20312,5.11719 l 0.46875,-5.3125 q 0.0781,-0.85938 0.97657,-0.9375 l 7.65625,-0.27344 q 1.01562,0.0781 1.01562,1.01563 z m -23.82812,28.32031 q 0,9.3359 5,9.3359 2.1875,0 3.55469,-1.9922 1.36718,-2.0312 2.34375,-8.0859 1.01562,-6.0547 1.01562,-8.8281 0,-2.7735 -0.0391,-3.5156 -0.0391,-0.7422 -0.15625,-1.9532 -0.11719,-1.25 -0.42969,-2.0703 -0.3125,-0.8594 -0.82031,-1.7187 -1.01563,-1.67972 -3.28125,-1.67972 -2.26563,0 -3.59375,2.03122 -1.32813,1.9922 -2.07031,5.3516 -1.52344,7.1875 -1.52344,13.125 z" />
        <path
           inkscape:connector-curvature="0"
           id="path4337"
           style="font-style:normal;font-variant:normal;font-weight:normal;font-stretch:normal;font-size:79.99999237px;line-height:125%;font-family:'Contrail One';-inkscape-font-specification:'Contrail One, Normal';text-align:start;letter-spacing:-3.49999952px;writing-mode:lr-tb;text-anchor:start;fill:#db404e;fill-opacity:1"
           d="m 551.90853,999.18152 -4.41406,-0.19531 q -1.875,0 -2.96875,0.85937 -1.05469,0.85942 -1.05469,2.50002 0,1.6015 0.58594,3.5547 0.78125,2.6172 2.69531,6.0937 1.95312,3.4766 2.69531,4.9219 2.26563,4.4922 2.26563,8.5547 0,5.8984 -3.47657,9.1015 -3.4375,3.1641 -10.46874,3.1641 -3.47657,0 -5.54688,-0.3906 -2.07031,-0.3516 -2.30469,-0.5469 -0.19531,-0.2344 -0.19531,-0.7031 l 1.01563,-7.2266 q 0.0781,-0.9765 0.66406,-0.9765 0.625,0 2.34375,0.4296 1.71875,0.4297 3.00781,0.4297 4.76562,0 4.76562,-3.789 0,-2.6953 -1.17187,-5.0391 -1.13281,-2.3437 -2.5,-4.8437 -1.32812,-2.5 -2.07031,-3.9844 -0.74219,-1.5235 -1.5625,-4.1797 -0.78125,-2.6563 -0.78125,-5 0,-5.46875 3.24219,-8.82813 3.28124,-3.35937 9.53124,-3.35937 4.02344,0 6.28907,0.39062 0.97656,0.15625 0.97656,1.01563 l -0.85938,6.95312 q 0,1.09375 -0.70312,1.09375 z" />
        <path
           inkscape:connector-curvature="0"
           id="path4339"
           style="font-style:normal;font-variant:normal;font-weight:normal;font-stretch:normal;font-size:79.99999237px;line-height:125%;font-family:'Contrail One';-inkscape-font-specification:'Contrail One, Normal';text-align:start;letter-spacing:-3.49999952px;writing-mode:lr-tb;text-anchor:start;fill:#db404e;fill-opacity:1"
           d="m 562.43197,990.23621 q 0.89844,-8.59375 1.17187,-8.86719 0.27344,-0.3125 0.82032,-0.35156 l 7.46093,-0.27344 q 1.05469,0.0781 1.05469,0.97657 -0.74219,4.33593 -1.25,8.32031 l 9.10156,-0.3125 q 0.9375,0.0391 0.9375,1.01562 l -1.09375,6.21094 q -0.15625,0.9375 -0.97656,0.97656 l -8.94531,0.35156 q -2.65625,23.90622 -2.65625,26.36722 0,4.5703 3.90625,4.5703 1.99218,0 3.86718,-0.625 1.875,-0.625 2.34375,-0.625 0.82032,0 0.82032,1.0156 l -0.82032,6.8359 q -0.0781,0.586 -0.3125,0.8594 -0.19531,0.2735 -1.91406,0.6641 -1.67969,0.3906 -5.78125,0.3906 -6.01562,0 -8.90625,-2.7734 -2.89062,-2.8125 -2.89062,-8.3594 0,-5.5469 3.08594,-28.20313 l -3.82813,0.15625 q -0.97656,-0.0391 -0.97656,-0.97656 l 1.05469,-6.28906 q 0.11718,-0.89844 1.01562,-0.9375 l 3.71094,-0.11719 z" />
        <path
           inkscape:connector-curvature="0"
           id="path4341"
           style="font-style:normal;font-variant:normal;font-weight:normal;font-stretch:normal;font-size:79.99999237px;line-height:125%;font-family:'Contrail One';-inkscape-font-specification:'Contrail One, Normal';text-align:start;letter-spacing:-3.49999952px;writing-mode:lr-tb;text-anchor:start;fill:#db404e;fill-opacity:1"
           d="m 592.29134,985.82215 q -2.42187,0 -3.86718,-1.52344 -1.44532,-1.52344 -1.44532,-3.90625 0,-2.42187 1.91407,-4.29687 1.95312,-1.91407 4.37499,-1.91407 2.42188,0 3.90625,1.52344 1.52344,1.52344 1.52344,3.94531 0,2.38282 -1.99219,4.29688 -1.99218,1.875 -4.41406,1.875 z m 4.33594,5.27344 -5.07813,45.03901 q -0.0781,0.5469 -0.27343,0.7813 -0.19532,0.2344 -0.74219,0.2734 l -7.85156,0.2735 q -0.85938,-0.078 -0.85938,-0.7422 l 5.15625,-45.4297 q 0.15625,-0.85938 0.97657,-0.9375 l 7.61718,-0.27344 q 1.05469,0.0781 1.05469,1.01563 z" />
        <path
           inkscape:connector-curvature="0"
           id="path4343"
           style="font-style:normal;font-variant:normal;font-weight:normal;font-stretch:normal;font-size:79.99999237px;line-height:125%;font-family:'Contrail One';-inkscape-font-specification:'Contrail One, Normal';text-align:start;letter-spacing:-3.49999952px;writing-mode:lr-tb;text-anchor:start;fill:#db404e;fill-opacity:1"
           d="m 602.2679,1030.0018 q -0.89844,-2.3437 -1.25,-4.6093 -0.3125,-2.3047 -0.3125,-6.2891 0,-3.9844 0.85937,-9.8438 2.85157,-19.5312 17.73438,-19.5312 5.74218,0 8.78906,3.94531 3.04687,3.94531 3.04687,10.23439 0,6.289 -0.78125,12.2265 -0.11718,1.0547 -1.21093,1.0938 l -19.29688,0.6641 q -0.0391,0.5859 -0.0391,1.5625 0,4.414 1.52344,6.9921 1.5625,2.5782 4.6875,2.5782 3.125,0 5.78125,-0.8985 2.69531,-0.9375 3.16406,-0.9375 0.46875,0 0.82031,0.3125 0.35156,0.3125 0.35156,0.8594 l -0.78125,6.875 q -0.0391,0.5859 -0.23437,0.7813 -0.15625,0.1562 -0.66406,0.3515 -4.72657,1.3672 -9.10157,1.3672 -4.375,0 -6.79687,-1.0547 -2.42187,-1.0547 -3.90625,-2.6953 -1.44531,-1.6797 -2.38281,-3.9844 z m 8.51562,-21.914 -0.35156,2.5 10.19531,-0.5078 q 0.66406,-0.039 0.85938,-0.2344 0.58593,-0.586 0.58593,-3.2031 0,-2.6563 -0.19531,-3.711 -0.15625,-1.0937 -0.58594,-2.2265 -0.89843,-2.50004 -3.08593,-2.50004 -2.14844,0 -3.39844,0.74219 -2.77344,1.71875 -4.02344,9.14065 z" />
      </g>
    </g>
  </g>
</svg>
